<?xml version="1.0" encoding="utf-8"?>
<!DOCTYPE svg PUBLIC "-//W3C//DTD SVG 1.1//EN" "http://www.w3.org/Graphics/SVG/1.1/DTD/svg11.dtd">
<svg version="1.1" id="Layer_1" xmlns="http://www.w3.org/2000/svg" xmlns:xlink="http://www.w3.org/1999/xlink" x="0px" y="0px"
	 width="1816px" height="33.85px" viewBox="0 0 1816 33.85" enable-background="new 0 0 1816 33.85" xml:space="preserve">
<title>desert-title-small</title>
<rect y="8.64" fill="#FEDA0E" width="52.69" height="16.61"/>
<linearGradient id="SVGID_1_" gradientUnits="userSpaceOnUse" x1="-200.1895" y1="-544.2053" x2="1467.3105" y2="-544.2053" gradientTransform="matrix(1 0 0 -1 348.6895 -527.2603)">
	<stop  offset="0" style="stop-color:#FEDA0E"/>
	<stop  offset="1" style="stop-color:#FEDA0E;stop-opacity:0"/>
</linearGradient>
<rect x="148.5" y="8.64" fill="url(#SVGID_1_)" width="1667.5" height="16.61"/>
<g>
	<path fill="#5B5E63" d="M62.272,26.22c1.949,0.998,4.945,1.998,8.035,1.998c3.328,0,5.087-1.379,5.087-3.473
		c0-1.996-1.521-3.139-5.373-4.516c-5.325-1.854-8.795-4.802-8.795-9.461c0-5.468,4.564-9.651,12.123-9.651
		c3.612,0,6.275,0.761,8.177,1.617l-1.617,5.847c-1.283-0.618-3.566-1.521-6.703-1.521c-3.138,0-4.659,1.427-4.659,3.091
		c0,2.043,1.807,2.947,5.943,4.516c5.658,2.091,8.32,5.04,8.32,9.557c0,5.371-4.137,9.934-12.932,9.934
		c-3.661,0-7.274-0.947-9.081-1.947L62.272,26.22z"/>
	<path fill="#5B5E63" d="M94.932,3.97c0,1.997-1.521,3.613-3.898,3.613c-2.282,0-3.804-1.616-3.756-3.613
		c-0.048-2.091,1.474-3.661,3.803-3.661C93.41,0.309,94.885,1.879,94.932,3.97z M87.468,33.685v-23.25h7.226v23.25H87.468z"/>
	<path fill="#5B5E63" d="M108.575,3.78v6.655h5.183v5.325h-5.183v8.415c0,2.805,0.666,4.088,2.852,4.088
		c0.903,0,1.617-0.096,2.14-0.189l0.047,5.467c-0.95,0.381-2.662,0.617-4.706,0.617c-2.33,0-4.28-0.807-5.42-1.996
		c-1.331-1.379-1.997-3.613-1.997-6.895V15.76h-3.09v-5.325h3.09V5.397L108.575,3.78z"/>
	<path fill="#5B5E63" d="M123.264,24.366c0.238,2.994,3.186,4.422,6.561,4.422c2.472,0,4.469-0.334,6.418-0.951l0.951,4.895
		c-2.378,0.955-5.277,1.428-8.416,1.428c-7.892,0-12.408-4.563-12.408-11.838c0-5.894,3.661-12.408,11.743-12.408
		c7.512,0,10.364,5.848,10.364,11.601c0,1.234-0.142,2.33-0.238,2.852H123.264L123.264,24.366z M131.774,19.421
		c0-1.76-0.76-4.707-4.088-4.707c-3.042,0-4.279,2.757-4.469,4.707H131.774z"/>
</g>
</svg>
