<?xml version="1.0" encoding="utf-8"?>
<!DOCTYPE svg PUBLIC "-//W3C//DTD SVG 1.1//EN" "http://www.w3.org/Graphics/SVG/1.1/DTD/svg11.dtd">
<svg version="1.1" id="Layer_1" xmlns="http://www.w3.org/2000/svg" xmlns:xlink="http://www.w3.org/1999/xlink" x="0px" y="0px"
	 width="1920px" height="62.02px" viewBox="0 0 1920 62.02" enable-background="new 0 0 1920 62.02" xml:space="preserve">
<title>desert-title</title>
<rect y="15.27" fill="#FEDA0E" width="52.69" height="34.49"/>
<linearGradient id="SVGID_1_" gradientUnits="userSpaceOnUse" x1="-288.0342" y1="1222.1907" x2="1396.9658" y2="1222.1907" gradientTransform="matrix(1 0 0 1 523.0342 -1189.6758)">
	<stop  offset="0" style="stop-color:#FEDA0E"/>
	<stop  offset="1" style="stop-color:#FEDA0E;stop-opacity:0"/>
</linearGradient>
<rect x="235" y="15.27" fill="url(#SVGID_1_)" width="1685" height="34.49"/>
<g>
	<path fill="#5B5E63" d="M72.195,47.287c3.557,1.822,9.024,3.646,14.664,3.646c6.074,0,9.285-2.517,9.285-6.334
		c0-3.646-2.777-5.729-9.805-8.243c-9.718-3.384-16.052-8.764-16.052-17.267c0-9.979,8.33-17.614,22.125-17.614
		c6.594,0,11.453,1.388,14.924,2.95l-2.95,10.672c-2.342-1.128-6.508-2.776-12.234-2.776s-8.503,2.604-8.503,5.641
		c0,3.73,3.297,5.379,10.846,8.242c10.326,3.817,15.185,9.197,15.185,17.439c0,9.806-7.549,18.134-23.601,18.134
		c-6.681,0-13.275-1.733-16.572-3.557L72.195,47.287z"/>
	<path fill="#5B5E63" d="M131.8,6.681c0,3.645-2.777,6.594-7.115,6.594c-4.165,0-6.942-2.949-6.854-6.594
		C117.743,2.865,120.52,0,124.771,0S131.713,2.865,131.8,6.681z M118.178,60.911V18.481h13.188v42.431H118.178z"/>
	<path fill="#5B5E63" d="M156.699,6.334v12.146h9.458v9.719h-9.458v15.356c0,5.118,1.215,7.463,5.206,7.463
		c1.648,0,2.95-0.174,3.905-0.349l0.086,9.979c-1.735,0.693-4.859,1.127-8.589,1.127c-4.252,0-7.81-1.474-9.892-3.644
		c-2.429-2.516-3.645-6.595-3.645-12.582V28.199h-5.639v-9.719h5.639V9.284L156.699,6.334z"/>
	<path fill="#5B5E63" d="M183.507,43.906c0.434,5.465,5.814,8.067,11.974,8.067c4.512,0,8.156-0.606,11.713-1.733l1.736,8.936
		c-4.339,1.737-9.631,2.604-15.358,2.604c-14.403,0-22.646-8.328-22.646-21.604c0-10.758,6.682-22.646,21.432-22.646
		c13.709,0,18.915,10.673,18.915,21.173c0,2.254-0.26,4.25-0.434,5.205L183.507,43.906L183.507,43.906z M199.038,34.88
		c0-3.21-1.388-8.589-7.461-8.589c-5.553,0-7.809,5.032-8.156,8.589H199.038z"/>
</g>
</svg>
