<?xml version="1.0" encoding="utf-8"?>
<!DOCTYPE svg PUBLIC "-//W3C//DTD SVG 1.1//EN" "http://www.w3.org/Graphics/SVG/1.1/DTD/svg11.dtd">
<svg version="1.1" id="Layer_1" xmlns="http://www.w3.org/2000/svg" xmlns:xlink="http://www.w3.org/1999/xlink" x="0px" y="0px"
	 width="1862px" height="45.79px" viewBox="0 0 1862 45.79" enable-background="new 0 0 1862 45.79" xml:space="preserve">
<title>desert-title-medium</title>
<rect y="9.79" fill="#FEDA0E" width="52.69" height="26.21"/>
<linearGradient id="SVGID_1_" gradientUnits="userSpaceOnUse" x1="-167.4395" y1="-526.2456" x2="1513.3105" y2="-526.2456" gradientTransform="matrix(1 0 0 -1 348.6895 -503.3506)">
	<stop  offset="0" style="stop-color:#FEDA0E"/>
	<stop  offset="1" style="stop-color:#FEDA0E;stop-opacity:0"/>
</linearGradient>
<rect x="181.25" y="9.79" fill="url(#SVGID_1_)" width="1680.75" height="26.21"/>
<g>
	<path fill="#5B5E63" d="M63.853,35.5c2.631,1.348,6.674,2.695,10.845,2.695c4.492,0,6.867-1.861,6.867-4.686
		c0-2.695-2.054-4.236-7.251-6.096c-7.187-2.502-11.871-6.48-11.871-12.769c0-7.38,6.16-13.026,16.362-13.026
		c4.876,0,8.47,1.026,11.037,2.182l-2.182,7.892c-1.732-0.834-4.813-2.053-9.047-2.053c-4.235,0-6.289,1.925-6.289,4.171
		c0,2.758,2.438,3.979,8.021,6.096c7.636,2.822,11.229,6.802,11.229,12.898c0,7.25-5.583,13.408-17.454,13.408
		c-4.941,0-9.817-1.279-12.256-2.629L63.853,35.5z"/>
	<path fill="#5B5E63" d="M107.933,5.469c0,2.695-2.054,4.876-5.262,4.876c-3.08,0-5.134-2.181-5.069-4.876
		c-0.065-2.822,1.989-4.94,5.133-4.94C105.879,0.529,107.869,2.647,107.933,5.469z M97.859,45.575V14.196h9.753v31.379H97.859z"/>
	<path fill="#5B5E63" d="M126.347,5.213v8.983h6.995v7.188h-6.995v11.355c0,3.787,0.898,5.52,3.85,5.52
		c1.219,0,2.182-0.129,2.888-0.258l0.063,7.381c-1.283,0.512-3.593,0.832-6.352,0.832c-3.145,0-5.776-1.09-7.315-2.693
		c-1.797-1.861-2.696-4.877-2.696-9.307v-12.83h-4.17v-7.188h4.17V7.395L126.347,5.213z"/>
	<path fill="#5B5E63" d="M146.172,32.999c0.321,4.041,4.3,5.967,8.855,5.967c3.337,0,6.032-0.449,8.662-1.283l1.284,6.607
		c-3.209,1.287-7.123,1.926-11.358,1.926c-10.651,0-16.748-6.158-16.748-15.977c0-7.956,4.942-16.747,15.85-16.747
		c10.138,0,13.988,7.893,13.988,15.659c0,1.666-0.192,3.143-0.321,3.848H146.172L146.172,32.999z M157.658,26.323
		c0-2.373-1.026-6.351-5.518-6.351c-4.106,0-5.775,3.722-6.032,6.351H157.658z"/>
</g>
</svg>
