<?xml version="1.0" encoding="utf-8"?>
<!DOCTYPE svg PUBLIC "-//W3C//DTD SVG 1.1//EN" "http://www.w3.org/Graphics/SVG/1.1/DTD/svg11.dtd">
<svg version="1.1" id="Layer_1" xmlns="http://www.w3.org/2000/svg" xmlns:xlink="http://www.w3.org/1999/xlink" x="0px" y="0px"
	 width="1816px" height="33.85px" viewBox="0 0 1816 33.85" enable-background="new 0 0 1816 33.85" xml:space="preserve">
<title>desert-title-small</title>
<rect y="8.64" fill="#FEDA0E" width="52.69" height="16.61"/>
<linearGradient id="SVGID_1_" gradientUnits="userSpaceOnUse" x1="63.6553" y1="700.4797" x2="1641.6553" y2="700.4797" gradientTransform="matrix(1 0 0 1 174.3447 -683.5352)">
	<stop  offset="0" style="stop-color:#FEDA0E"/>
	<stop  offset="1" style="stop-color:#FEDA0E;stop-opacity:0"/>
</linearGradient>
<rect x="238" y="8.64" fill="url(#SVGID_1_)" width="1578" height="16.61"/>
<g>
	<path fill="#5B5E63" d="M68.449,33.942L60.8,1.721h7.792l2.438,13.29c0.717,3.824,1.386,7.984,1.912,11.235h0.096
		c0.526-3.49,1.291-7.362,2.104-11.331l2.725-13.194h7.744l2.582,13.576c0.717,3.777,1.243,7.219,1.721,10.804h0.096
		c0.478-3.585,1.195-7.362,1.864-11.186l2.629-13.194h7.41l-8.318,32.221h-7.888l-2.724-13.863c-0.622-3.252-1.148-6.264-1.53-9.944
		h-0.096c-0.574,3.633-1.1,6.692-1.864,9.944l-3.06,13.863H68.449z"/>
	<path fill="#5B5E63" d="M109.031,24.572c0.239,3.012,3.203,4.446,6.597,4.446c2.485,0,4.494-0.335,6.454-0.957l0.957,4.926
		c-2.391,0.955-5.307,1.434-8.462,1.434c-7.935,0-12.477-4.591-12.477-11.904c0-5.928,3.681-12.478,11.808-12.478
		c7.553,0,10.422,5.879,10.422,11.664c0,1.244-0.144,2.345-0.239,2.869H109.031z M117.588,19.6c0-1.769-0.765-4.733-4.111-4.733
		c-3.059,0-4.302,2.773-4.494,4.733H117.588z"/>
	<path fill="#5B5E63" d="M128.486,33.942c0.096-1.531,0.191-4.351,0.191-6.979V0h7.266v13.337h0.096
		c1.387-2.008,3.824-3.299,7.075-3.299c5.593,0,9.704,4.637,9.657,11.808c0,8.414-5.354,12.622-10.708,12.622
		c-2.725,0-5.354-1.005-7.027-3.778h-0.096l-0.287,3.252H128.486z M135.943,23.997c0,0.479,0.048,0.909,0.144,1.29
		c0.478,1.962,2.151,3.443,4.254,3.443c3.107,0,5.02-2.391,5.02-6.598c0-3.632-1.625-6.502-5.02-6.502
		c-1.959,0-3.776,1.483-4.254,3.586c-0.096,0.431-0.144,0.861-0.144,1.339V23.997z"/>
	<path fill="#5B5E63" d="M157.214,27.583c1.338,0.813,4.111,1.769,6.263,1.769c2.199,0,3.107-0.764,3.107-1.959
		c0-1.196-0.717-1.771-3.442-2.678c-4.829-1.626-6.693-4.255-6.645-7.027c0-4.35,3.729-7.649,9.513-7.649
		c2.725,0,5.163,0.622,6.597,1.338l-1.291,5.021c-1.051-0.575-3.059-1.338-5.067-1.338c-1.769,0-2.772,0.717-2.772,1.912
		c0,1.101,0.908,1.673,3.776,2.678c4.446,1.529,6.31,3.775,6.357,7.22c0,4.349-3.441,7.553-10.134,7.553
		c-3.06,0-5.785-0.67-7.554-1.627L157.214,27.583z"/>
	<path fill="#5B5E63" d="M185.512,4.063c0,2.008-1.53,3.634-3.92,3.634c-2.294,0-3.825-1.625-3.776-3.634
		c-0.048-2.104,1.482-3.681,3.824-3.681S185.464,1.959,185.512,4.063z M178.007,33.942V10.565h7.266v23.377H178.007z"/>
	<path fill="#5B5E63" d="M199.23,3.871v6.693h5.211v5.353h-5.211v8.462c0,2.821,0.669,4.111,2.868,4.111
		c0.908,0,1.625-0.095,2.151-0.191l0.048,5.498c-0.956,0.381-2.677,0.622-4.732,0.622c-2.343,0-4.303-0.813-5.45-2.01
		c-1.338-1.386-2.008-3.632-2.008-6.932v-9.561H189v-5.353h3.107V5.497L199.23,3.871z"/>
	<path fill="#5B5E63" d="M214,24.572c0.239,3.012,3.203,4.446,6.597,4.446c2.486,0,4.494-0.335,6.454-0.957l0.957,4.926
		c-2.391,0.955-5.307,1.434-8.461,1.434c-7.936,0-12.478-4.591-12.478-11.904c0-5.928,3.681-12.478,11.808-12.478
		c7.554,0,10.422,5.879,10.422,11.664c0,1.244-0.144,2.345-0.239,2.869H214z M222.557,19.6c0-1.769-0.765-4.733-4.111-4.733
		c-3.06,0-4.303,2.773-4.494,4.733H222.557z"/>
</g>
</svg>
