<?xml version="1.0" encoding="utf-8"?>
<!DOCTYPE svg PUBLIC "-//W3C//DTD SVG 1.1//EN" "http://www.w3.org/Graphics/SVG/1.1/DTD/svg11.dtd">
<svg version="1.1" id="Layer_1" xmlns="http://www.w3.org/2000/svg" xmlns:xlink="http://www.w3.org/1999/xlink" x="0px" y="0px"
	 width="1862px" height="45.79px" viewBox="0 0 1862 45.79" enable-background="new 0 0 1862 45.79" xml:space="preserve">
<title>desert-title-medium</title>
<rect y="9.79" fill="#FEDA0E" width="52.69" height="26.21"/>
<linearGradient id="SVGID_1_" gradientUnits="userSpaceOnUse" x1="124.8218" y1="694.4614" x2="1687.6553" y2="694.4614" gradientTransform="matrix(1 0 0 1 174.3447 -671.5654)">
	<stop  offset="0" style="stop-color:#FEDA0E"/>
	<stop  offset="1" style="stop-color:#FEDA0E;stop-opacity:0"/>
</linearGradient>
<rect x="299.167" y="9.79" fill="url(#SVGID_1_)" width="1562.833" height="26.21"/>
<g>
	<path fill="#5B5E63" d="M72.171,45.844L61.865,2.43h10.499l3.285,17.907c0.966,5.153,1.868,10.757,2.577,15.138h0.129
		c0.708-4.703,1.739-9.92,2.834-15.267L84.86,2.43h10.435l3.479,18.292c0.966,5.088,1.675,9.727,2.319,14.558h0.129
		c0.644-4.831,1.61-9.92,2.512-15.073l3.542-17.778h9.984l-11.208,43.414H95.424l-3.671-18.68c-0.838-4.38-1.546-8.439-2.062-13.397
		h-0.129c-0.773,4.895-1.481,9.018-2.512,13.397l-4.123,18.68H72.171z"/>
	<path fill="#5B5E63" d="M126.852,33.22c0.322,4.058,4.316,5.99,8.889,5.99c3.349,0,6.055-0.452,8.695-1.289l1.289,6.636
		c-3.221,1.287-7.15,1.932-11.401,1.932c-10.692,0-16.812-6.185-16.812-16.039c0-7.987,4.96-16.812,15.91-16.812
		c10.177,0,14.042,7.922,14.042,15.716c0,1.676-0.193,3.158-0.322,3.866H126.852z M138.382,26.52c0-2.382-1.031-6.377-5.54-6.377
		c-4.122,0-5.797,3.737-6.055,6.377H138.382z"/>
	<path fill="#5B5E63" d="M153.065,45.844c0.129-2.063,0.258-5.861,0.258-9.404V0.112h9.791v17.971h0.129
		c1.868-2.706,5.153-4.444,9.533-4.444c7.537,0,13.076,6.248,13.012,15.91c0,11.336-7.214,17.005-14.428,17.005
		c-3.672,0-7.215-1.354-9.469-5.09h-0.129l-0.387,4.381H153.065z M163.113,32.447c0,0.644,0.064,1.225,0.193,1.738
		c0.644,2.642,2.898,4.639,5.732,4.639c4.187,0,6.763-3.222,6.763-8.889c0-4.896-2.189-8.762-6.763-8.762
		c-2.641,0-5.088,1.998-5.732,4.832c-0.129,0.58-0.193,1.159-0.193,1.805V32.447z"/>
	<path fill="#5B5E63" d="M191.773,37.278c1.803,1.096,5.539,2.384,8.438,2.384c2.963,0,4.187-1.03,4.187-2.642
		c0-1.61-0.966-2.384-4.638-3.607c-6.506-2.19-9.018-5.731-8.953-9.468c0-5.862,5.024-10.307,12.818-10.307
		c3.671,0,6.957,0.838,8.889,1.803l-1.739,6.764c-1.417-0.774-4.122-1.804-6.827-1.804c-2.384,0-3.736,0.966-3.736,2.576
		c0,1.482,1.224,2.255,5.088,3.608c5.99,2.061,8.502,5.087,8.566,9.728c0,5.859-4.637,10.176-13.655,10.176
		c-4.122,0-7.794-0.902-10.178-2.19L191.773,37.278z"/>
	<path fill="#5B5E63" d="M229.901,5.586c0,2.706-2.061,4.896-5.282,4.896c-3.092,0-5.153-2.191-5.088-4.896
		c-0.065-2.834,1.997-4.96,5.153-4.96S229.837,2.752,229.901,5.586z M219.789,45.844V14.347h9.791v31.498H219.789z"/>
	<path fill="#5B5E63" d="M248.385,5.328v9.019h7.021v7.213h-7.021v11.402c0,3.801,0.902,5.538,3.865,5.538
		c1.224,0,2.19-0.127,2.898-0.257l0.064,7.408c-1.288,0.514-3.607,0.837-6.376,0.837c-3.156,0-5.797-1.096-7.343-2.707
		c-1.804-1.867-2.706-4.895-2.706-9.339V21.56h-4.187v-7.213h4.187V7.519L248.385,5.328z"/>
	<path fill="#5B5E63" d="M268.286,33.22c0.323,4.058,4.316,5.99,8.889,5.99c3.35,0,6.055-0.452,8.696-1.289l1.289,6.636
		c-3.221,1.287-7.15,1.932-11.401,1.932c-10.693,0-16.812-6.185-16.812-16.039c0-7.987,4.96-16.812,15.91-16.812
		c10.177,0,14.042,7.922,14.042,15.716c0,1.676-0.193,3.158-0.322,3.866H268.286z M279.816,26.52c0-2.382-1.03-6.377-5.54-6.377
		c-4.123,0-5.797,3.737-6.055,6.377H279.816z"/>
</g>
</svg>
