<?xml version="1.0" encoding="utf-8"?>
<!DOCTYPE svg PUBLIC "-//W3C//DTD SVG 1.1//EN" "http://www.w3.org/Graphics/SVG/1.1/DTD/svg11.dtd">
<svg version="1.1" id="Layer_1" xmlns="http://www.w3.org/2000/svg" xmlns:xlink="http://www.w3.org/1999/xlink" x="0px" y="0px"
	 width="1920px" height="62.02px" viewBox="0 0 1920 62.02" enable-background="new 0 0 1920 62.02" xml:space="preserve">
<title>desert-title</title>
<rect y="15.27" fill="#FEDA0E" width="52.69" height="34.49"/>
<linearGradient id="SVGID_1_" gradientUnits="userSpaceOnUse" x1="39.8105" y1="-503.615" x2="1571.3105" y2="-503.615" gradientTransform="matrix(1 0 0 -1 348.6895 -471.1001)">
	<stop  offset="0" style="stop-color:#FEDA0E"/>
	<stop  offset="1" style="stop-color:#FEDA0E;stop-opacity:0"/>
</linearGradient>
<rect x="388.5" y="15.27" fill="url(#SVGID_1_)" width="1531.5" height="34.49"/>
<g>
	<path fill="#5B5E63" d="M82.267,61.638L68.375,3.12h14.151l4.428,24.136c1.303,6.946,2.518,14.5,3.473,20.404h0.174
		c0.955-6.34,2.344-13.371,3.82-20.578L99.37,3.12h14.065l4.689,24.656c1.302,6.858,2.257,13.11,3.125,19.622h0.173
		c0.868-6.512,2.17-13.371,3.386-20.316l4.775-23.962h13.457l-15.106,58.518h-14.326L108.66,36.46
		c-1.129-5.904-2.084-11.374-2.778-18.06h-0.174c-1.042,6.599-1.997,12.155-3.386,18.06l-5.557,25.178H82.267z"/>
	<path fill="#5B5E63" d="M155.971,44.621c0.435,5.47,5.817,8.073,11.981,8.073c4.514,0,8.161-0.607,11.721-1.736l1.737,8.943
		c-4.342,1.735-9.637,2.604-15.368,2.604c-14.412,0-22.661-8.336-22.661-21.619c0-10.766,6.686-22.66,21.445-22.66
		c13.718,0,18.927,10.679,18.927,21.185c0,2.258-0.26,4.255-0.434,5.21H155.971z M171.512,35.591c0-3.212-1.389-8.595-7.467-8.595
		c-5.556,0-7.813,5.035-8.161,8.595H171.512z"/>
	<path fill="#5B5E63" d="M191.303,61.638c0.174-2.779,0.347-7.901,0.347-12.676V-0.005h13.197v24.223h0.174
		c2.518-3.646,6.945-5.99,12.849-5.99c10.158,0,17.625,8.421,17.538,21.444c0,15.28-9.724,22.921-19.448,22.921
		c-4.949,0-9.725-1.824-12.763-6.859h-0.174l-0.521,5.904H191.303z M204.847,43.578c0,0.867,0.086,1.649,0.26,2.345
		c0.869,3.56,3.907,6.251,7.727,6.251c5.643,0,9.116-4.341,9.116-11.98c0-6.599-2.952-11.809-9.116-11.809
		c-3.559,0-6.858,2.692-7.727,6.512c-0.174,0.781-0.26,1.563-0.26,2.433V43.578z"/>
	<path fill="#5B5E63" d="M243.477,50.091c2.431,1.476,7.466,3.213,11.374,3.213c3.994,0,5.643-1.39,5.643-3.562
		c0-2.17-1.302-3.212-6.251-4.86c-8.769-2.953-12.155-7.729-12.068-12.763c0-7.901,6.772-13.893,17.277-13.893
		c4.949,0,9.377,1.128,11.981,2.432l-2.344,9.115c-1.91-1.042-5.557-2.431-9.203-2.431c-3.213,0-5.036,1.302-5.036,3.473
		c0,1.996,1.649,3.038,6.859,4.861c8.074,2.778,11.46,6.858,11.547,13.111c0,7.898-6.251,13.718-18.406,13.718
		c-5.556,0-10.505-1.217-13.718-2.953L243.477,50.091z"/>
	<path fill="#5B5E63" d="M294.871,7.375c0,3.646-2.778,6.599-7.119,6.599c-4.168,0-6.946-2.952-6.859-6.599
		c-0.087-3.82,2.691-6.686,6.945-6.686S294.784,3.554,294.871,7.375z M281.24,61.638V19.182h13.197v42.456H281.24z"/>
	<path fill="#5B5E63" d="M319.785,7.028v12.155h9.463v9.725h-9.463v15.367c0,5.123,1.216,7.467,5.209,7.467
		c1.649,0,2.952-0.174,3.907-0.347l0.087,9.983c-1.736,0.694-4.862,1.13-8.595,1.13c-4.254,0-7.814-1.477-9.898-3.648
		c-2.431-2.518-3.647-6.599-3.647-12.588V28.906h-5.643v-9.725h5.643V9.979L319.785,7.028z"/>
	<path fill="#5B5E63" d="M346.609,44.621c0.435,5.47,5.817,8.073,11.981,8.073c4.515,0,8.161-0.607,11.721-1.736l1.737,8.943
		c-4.341,1.735-9.637,2.604-15.367,2.604c-14.413,0-22.661-8.336-22.661-21.619c0-10.766,6.686-22.66,21.445-22.66
		c13.718,0,18.927,10.679,18.927,21.185c0,2.258-0.26,4.255-0.434,5.21H346.609z M362.15,35.591c0-3.212-1.389-8.595-7.466-8.595
		c-5.557,0-7.813,5.035-8.161,8.595H362.15z"/>
</g>
</svg>